<svg width="145" height="145" viewBox="0 0 145 145" fill="none" xmlns="http://www.w3.org/2000/svg">
<path d="M116.737 105.678C116.745 99.254 114.938 92.9601 111.527 87.5163L109.659 84.5181C106.248 79.0743 104.442 72.7804 104.449 66.3562V34.407C104.449 16.7611 90.1458 2.45768 72.5 2.45768C54.8542 2.45768 40.5507 16.7611 40.5507 34.407V66.3562C40.5581 72.7804 38.7518 79.0743 35.3407 84.5181L33.4729 87.5163C30.0617 92.9601 28.2555 99.254 28.2628 105.678C28.2628 105.678 38.0934 122.882 72.5 122.882C106.907 122.882 116.737 105.678 116.737 105.678Z" fill="#70432C"/>
<path d="M46.2525 16.1959C42.5414 21.5436 40.5507 27.8967 40.5507 34.407V66.3563C40.5581 72.7804 38.7518 79.0743 35.3407 84.5181L33.4729 87.5163C30.0617 92.9601 28.2555 99.254 28.2628 105.678C28.2628 105.678 38.0934 122.882 72.5 122.882V36.8643C53.4535 36.8643 47.5306 26.3459 46.2525 16.1959Z" fill="#5C3724"/>
<path d="M111.306 103.982L94.2253 101.696L93.0458 104.425C88.1673 115.771 75.0142 121.016 63.6674 116.138C58.408 113.876 54.2178 109.684 51.9544 104.425L50.7749 101.696L33.6943 103.982C26.3729 104.955 20.9 111.195 20.8901 118.58V145H124.111V118.58C124.1 111.195 118.627 104.955 111.306 103.982Z" fill="#787D82"/>
<path d="M72.5 117.966C81.4407 117.971 89.5239 112.643 93.0458 104.424L94.2254 101.696L91.5219 101.328C89.0594 101.006 87.2234 98.8972 87.2455 96.4123V86.0165H57.7541V96.5596C57.7762 99.0441 55.9405 101.153 53.4778 101.475L50.7743 101.844L51.9538 104.572C55.5202 112.734 63.5935 117.996 72.5 117.966Z" fill="#FEDAC6"/>
<path d="M87.5406 98.0839C87.344 97.5654 87.2432 97.0148 87.2458 96.462V86.0172H57.7542V96.5603C57.7567 97.1134 57.6559 97.6636 57.4594 98.1822C66.9311 102.943 78.1009 102.906 87.5406 98.0839Z" fill="#F5C4B0"/>
<path d="M99.5339 44.2372H97.0763V58.983H99.5339C103.606 58.983 106.907 55.6823 106.907 51.6101C106.907 47.5379 103.606 44.2372 99.5339 44.2372Z" fill="#FEDAC6"/>
<path d="M38.093 51.6101C38.093 55.6823 41.3938 58.983 45.4659 58.983H47.9236V44.2372H45.4659C41.3938 44.2372 38.093 47.5379 38.093 51.6101Z" fill="#FEDAC6"/>
<path d="M74.9576 63.8983H67.5846C66.8843 63.8983 66.2182 63.6009 65.7537 63.0799C65.2867 62.5588 65.0655 61.8632 65.1417 61.1702L67.5993 39.0515L72.4826 39.5947L70.3297 58.9828H74.9576V63.8983Z" fill="black"/>
<path d="M97.0766 31.9493V57.9264C97.0766 65.0509 95.1401 72.0429 91.4731 78.1527L87.3936 84.9604C84.2529 90.1903 78.6002 93.3899 72.5003 93.3899C66.4003 93.3899 60.7479 90.19 57.6072 84.9604L53.5276 78.1527C49.8607 72.0432 47.9242 65.0512 47.9242 57.9264V34.4069C47.9242 34.4069 70.0429 29.4916 72.5005 14.7458C75.9998 25.2742 85.9852 32.2662 97.0766 31.9493Z" fill="#FEDAC6"/>
<path d="M47.9237 39.3219H67.5848V46.6948C67.5848 52.1238 63.1833 56.5254 57.7543 56.5254C52.3253 56.5254 47.9237 52.1238 47.9237 46.6948V39.3219Z" fill="#EBEBEB"/>
<path d="M77.4153 39.3219H97.0764V46.6948C97.0764 52.1238 92.6748 56.5254 87.2458 56.5254C81.8168 56.5254 77.4153 52.1238 77.4153 46.6948V39.3219Z" fill="#EBEBEB"/>
<path d="M87.4175 65.8642C85.7168 64.5886 83.6449 63.8982 81.5192 63.8982H63.4803C61.3546 63.8982 59.2827 64.5889 57.5821 65.8642L50.3813 71.2711C51.2414 73.6378 52.3278 75.9185 53.6254 78.0787L57.705 84.8864C62.6471 93.112 73.323 95.7736 81.549 90.8288C83.987 89.3641 86.0267 87.3242 87.4914 84.8864L91.5709 78.0787C92.7998 75.9111 93.8196 73.633 94.6185 71.2711L87.4175 65.8642Z" fill="#70432C"/>
<path d="M30.7207 104.719C24.8445 106.796 20.9074 112.346 20.8901 118.581V145H30.7207V104.719Z" fill="#717478"/>
<path d="M61.7845 64.0705C60.2583 64.3211 58.8183 64.9357 57.5821 65.8646L50.3813 71.2715C51.2414 73.6382 52.3278 75.9188 53.6254 78.0791L57.705 84.8867C58.9607 86.9487 60.6344 88.723 62.6203 90.0968C59.8208 81.6865 59.5308 72.6425 61.7845 64.0705Z" fill="#5C3724"/>
<path d="M23.3478 145H18.4325V118.58C18.4818 109.952 24.9649 102.657 33.5125 101.593L53.1489 98.9418C54.3877 98.782 55.3067 97.7251 55.297 96.4841V86.0172H60.2123V96.462C60.2443 100.163 57.4868 103.334 53.7955 103.813L34.1443 106.467C28.0124 107.231 23.3823 112.441 23.3455 118.595V145H23.3478Z" fill="black"/>
<path d="M126.568 145H121.652V118.581C121.615 112.441 116.985 107.231 110.88 106.469L91.1924 103.813C87.5133 103.333 84.7557 100.163 84.7878 96.4397V86.017H89.703V96.4618C89.6908 97.7249 90.6098 98.7792 91.8412 98.9415L111.512 101.596C120.035 102.657 126.516 109.952 126.567 118.566V145H126.568Z" fill="black"/>
<path d="M99.5339 61.4406H97.0763V56.5254H99.5339C102.245 56.5254 104.449 54.3209 104.449 51.6101C104.449 48.8993 102.245 46.6948 99.5339 46.6948H97.0763V41.7795H99.5339C104.956 41.7795 109.364 46.1884 109.364 51.6101C109.364 57.0317 104.955 61.4406 99.5339 61.4406Z" fill="black"/>
<path d="M47.9239 61.4406H45.4663C40.0447 61.4406 35.6357 57.0317 35.6357 51.6101C35.6357 46.1884 40.0447 41.7795 45.4663 41.7795H47.9239V46.6948H45.4663C42.7555 46.6948 40.551 48.8993 40.551 51.6101C40.551 54.3209 42.7555 56.5254 45.4663 56.5254H47.9239V61.4406Z" fill="black"/>
<path d="M72.5123 120.424C72.5001 120.424 72.4902 120.424 72.4853 120.424C62.5517 120.424 53.6084 114.525 49.6957 105.393L48.1228 101.734L52.6399 99.7946L54.2128 103.456C57.3513 110.778 64.5225 115.509 72.4876 115.509C72.495 115.509 72.5049 115.509 72.5097 115.509C80.4748 115.509 87.6486 110.778 90.7896 103.456L92.3625 99.7946L96.8796 101.734L95.3067 105.395C91.392 114.525 82.4436 120.424 72.5123 120.424Z" fill="black"/>
<path d="M74.9576 63.8983H67.5846C66.8843 63.8983 66.2182 63.6009 65.7537 63.0799C65.2867 62.5588 65.0655 61.8632 65.1417 61.1702L67.5993 39.0515L72.4826 39.5947L70.3297 58.9828H74.9576V63.8983Z" fill="black"/>
<path d="M72.5 95.8475C65.5769 95.8475 59.0643 92.161 55.5008 86.2259L51.4184 79.4157C47.5255 72.9275 45.4686 65.4957 45.4661 57.9263V34.4068C45.4661 33.2567 46.2672 32.2587 47.3879 32.0081C47.5918 31.9614 67.9212 27.265 70.0741 14.3427C70.261 13.2295 71.18 12.3841 72.308 12.2955C73.3967 12.202 74.4731 12.8975 74.8319 13.9714C78.0146 23.5463 86.8989 29.7444 97.0047 29.4938C97.6657 29.4423 98.3097 29.7249 98.7889 30.1868C99.2658 30.6487 99.5334 31.2854 99.5334 31.9489V57.926C99.5334 65.4954 97.474 72.9273 93.5785 79.418L89.499 86.2256C85.9383 92.161 79.4232 95.8475 72.5 95.8475ZM50.3813 36.304V57.9237C50.3813 64.6011 52.2001 71.1581 55.6333 76.8845L59.7154 83.6946C62.3942 88.1602 67.2922 90.9325 72.5 90.9325C77.7053 90.9325 82.6059 88.1602 85.2847 83.6972L89.3642 76.8895C92.8 71.1609 94.6185 64.6039 94.6185 57.9266V34.3677C85.5056 33.8146 77.4275 28.8651 72.7898 21.2096C67.5553 30.5875 55.1861 34.9302 50.3813 36.304Z" fill="black"/>
<path d="M57.7542 58.9829C50.9786 58.9829 45.4661 53.4704 45.4661 46.6948V39.3218C45.4661 37.9653 46.5672 36.8642 47.9237 36.8642H67.5848C68.9413 36.8642 70.0424 37.9653 70.0424 39.3218V46.6948C70.0424 53.4707 64.5299 58.9829 57.7542 58.9829ZM50.3813 41.7795V46.6948C50.3813 50.7596 53.6894 54.0677 57.7542 54.0677C61.8191 54.0677 65.1272 50.7596 65.1272 46.6948V41.7795H50.3813Z" fill="black"/>
<path d="M87.2458 58.9829C80.4702 58.9829 74.9576 53.4704 74.9576 46.6948V39.3218C74.9576 37.9653 76.0562 36.8642 77.4153 36.8642H97.0764C98.4355 36.8642 99.534 37.9653 99.534 39.3218V46.6948C99.534 53.4707 94.0215 58.9829 87.2458 58.9829ZM79.8729 41.7795V46.6948C79.8729 50.7596 83.181 54.0677 87.2458 54.0677C91.3106 54.0677 94.6187 50.7596 94.6187 46.6948V41.7795H79.8729Z" fill="black"/>
<path d="M77.4152 36.8642H67.5846V41.7795H77.4152V36.8642Z" fill="black"/>
<path d="M106.907 46.6948H101.992V34.4066C101.992 18.1445 88.7623 4.91499 72.4999 4.91499C56.2376 4.91499 43.0083 18.1445 43.0083 34.4069V46.6951H38.093V34.4069C38.093 15.434 53.527 0 72.4999 0C91.4728 0 106.907 15.434 106.907 34.4069V46.6948Z" fill="black"/>
<path d="M25.8052 105.68C25.7978 98.7866 27.7296 92.0552 31.3914 86.211L33.2543 83.2176C36.4296 78.1525 38.1007 72.3253 38.0934 66.3582V56.5251H43.0086V66.3557C43.016 73.2468 41.0843 79.9783 37.4225 85.8225L35.5596 88.8159C32.3843 93.881 30.7131 99.7082 30.7205 105.675L25.8052 105.68Z" fill="black"/>
<path d="M119.195 105.68L114.279 105.676C114.287 99.7085 112.613 93.8813 109.443 88.8236L107.573 85.8154C103.916 79.9785 101.984 73.2445 101.991 66.3534V56.5253H106.906V66.3559C106.899 72.3255 108.573 78.1525 111.743 83.2105L113.613 86.2187C117.27 92.0555 119.202 98.7869 119.195 105.68Z" fill="black"/>
<path d="M51.8585 73.2371L48.907 69.3048L56.1077 63.8979C58.2238 62.3128 60.8411 61.4403 63.4806 61.4403H81.5195C84.1615 61.4403 86.7814 62.3128 88.8924 63.8979L96.0956 69.3071L93.1441 73.2394L85.9434 67.8325C84.6752 66.8815 83.1074 66.3578 81.5198 66.3578H63.4809C61.8958 66.3578 60.3252 66.8812 59.0573 67.8325L51.8585 73.2371Z" fill="black"/>
<path d="M79.8728 71.2711H65.127V76.1864H79.8728V71.2711Z" fill="black"/>
</svg>
