<svg width="145" height="145" viewBox="0 0 145 145" fill="none" xmlns="http://www.w3.org/2000/svg">
<g clip-path="url(#clip0)">
<path d="M100.247 17.5475L99.5338 17.2035C96.5871 8.40037 88.3442 2.46273 79.0619 2.45763H38.0932L43.0084 17.2035C37.2945 20.0593 34.3846 26.5449 36.0533 32.7111L40.5508 46.6951H45.4661V34.4069C45.4661 34.4069 60.2119 34.4069 67.5848 31.9493L89.7035 24.5764L99.5341 41.7798V46.6951H104.449L107.349 32.1705C108.539 26.2524 105.634 20.2705 100.247 17.5475Z" fill="#A15D30"/>
<path d="M43.0083 17.2035C37.3066 20.0666 34.4165 26.5571 36.1024 32.7111L40.5507 46.6951H45.4659V34.4069C45.4659 34.4069 51.2413 34.4069 57.3607 33.817C51.0742 29.7791 46.0904 24.0085 43.0083 17.2035Z" fill="#8F4F24"/>
<path d="M111.306 103.982L94.2253 101.697L93.0458 104.425C88.1673 115.771 75.0142 121.016 63.6674 116.138C58.408 113.877 54.2178 109.684 51.9544 104.425L50.7749 101.697L33.6943 103.982C26.3729 104.955 20.9 111.195 20.8901 118.581V145H124.111V118.581C124.1 111.195 118.627 104.955 111.306 103.982Z" fill="#FECB66"/>
<path d="M72.4999 117.966C81.4407 117.971 89.5239 112.643 93.0458 104.424L94.2253 101.696L91.5219 101.328C89.0594 101.006 87.2234 98.8971 87.2455 96.4123V86.0164H57.7541V96.5595C57.7762 99.0441 55.9405 101.153 53.4778 101.475L50.7743 101.844L51.9538 104.572C55.5202 112.734 63.5935 117.996 72.4999 117.966Z" fill="#FEDAC6"/>
<path d="M87.5405 98.084C87.3439 97.5655 87.2431 97.0149 87.2457 96.4621V86.0173H57.754V96.5604C57.7566 97.1135 57.6558 97.6637 57.4592 98.1823C66.931 102.943 78.1008 102.906 87.5405 98.084Z" fill="#F5C4B0"/>
<path d="M30.7203 104.719C24.8441 106.796 20.907 112.346 20.8898 118.581V145H30.7203V104.719Z" fill="#F5AD76"/>
<path d="M99.5342 44.2372H97.0765V58.983H99.5342C103.606 58.983 106.907 55.6823 106.907 51.6101C106.907 47.5379 103.606 44.2372 99.5342 44.2372Z" fill="#FEDAC6"/>
<path d="M38.0933 51.6101C38.0933 55.6823 41.394 58.983 45.4662 58.983H47.9238V44.2372H45.4662C41.394 44.2372 38.0933 47.5379 38.0933 51.6101Z" fill="#F5C4B0"/>
<path d="M99.5341 68.2976C99.5661 71.9104 98.2732 75.4074 95.8969 78.1281L85.2799 90.1458C83.417 92.2667 80.7308 93.4856 77.907 93.4882H67.1427C64.3189 93.4856 61.6327 92.2667 59.7698 90.1458L49.1528 78.0052C46.7761 75.2845 45.4836 71.7875 45.5156 68.1746V34.4069C45.5156 34.4069 60.2614 34.4069 67.6343 31.9493L89.7531 24.5764L99.5836 41.7798L99.5341 68.2976Z" fill="#FEDAC6"/>
<path d="M55.2965 33.9889C50.0125 34.4066 45.4659 34.4066 45.4659 34.4066V68.2973C45.4339 71.9101 46.7267 75.4071 49.1031 78.1278L55.2962 85.0584V33.9889H55.2965Z" fill="#F5C4B0"/>
<path d="M45.4661 41.7795H67.5848V49.1525C67.5848 53.2246 64.2841 56.5254 60.2119 56.5254H52.839C48.7668 56.5254 45.4661 53.2246 45.4661 49.1525V41.7795Z" fill="#EBEBEB"/>
<path d="M77.4153 41.7795H99.534V49.1525C99.534 53.2246 96.2333 56.5254 92.1611 56.5254H84.7882C80.716 56.5254 77.4153 53.2246 77.4153 49.1525V41.7795Z" fill="#EBEBEB"/>
<path d="M23.3475 145H18.4323V118.679C18.4249 110.011 24.908 102.663 33.5123 101.593L53.1487 98.9418C54.3874 98.7821 55.3064 97.7252 55.2968 96.4842V88.4746H60.2121V96.4618C60.2441 100.163 57.4865 103.333 53.7953 103.813L34.1441 106.467C27.9705 107.236 23.3405 112.481 23.3453 118.676V145H23.3475Z" fill="black"/>
<path d="M126.568 145H121.652V118.679C121.657 112.483 117.027 107.236 110.88 106.469L91.1924 103.813C87.5133 103.333 84.7557 100.163 84.7878 96.4397V88.4746H89.703V96.4618C89.6908 97.7249 90.6098 98.7793 91.8412 98.9415L111.512 101.596C120.092 102.665 126.575 110.011 126.567 118.681V145H126.568Z" fill="black"/>
<path d="M99.5342 61.4406H97.0765V56.5254H99.5342C102.245 56.5254 104.449 54.3209 104.449 51.6101C104.449 48.8993 102.245 46.6948 99.5342 46.6948H97.0765V41.7795H99.5342C104.956 41.7795 109.365 46.1884 109.365 51.6101C109.365 57.0317 104.956 61.4406 99.5342 61.4406Z" fill="black"/>
<path d="M47.9236 61.4406H45.4659C40.0443 61.4406 35.6354 57.0317 35.6354 51.6101C35.6354 46.1884 40.0443 41.7795 45.4659 41.7795H47.9236V46.6948H45.4659C42.7551 46.6948 40.5507 48.8993 40.5507 51.6101C40.5507 54.3209 42.7551 56.5254 45.4659 56.5254H47.9236V61.4406Z" fill="black"/>
<path d="M72.5123 120.424C72.5023 120.424 72.4927 120.424 72.4853 120.424C62.5517 120.424 53.6084 114.525 49.6957 105.393L48.1228 101.734L52.6399 99.7946L54.2128 103.456C57.3513 110.778 64.5225 115.509 72.4876 115.509C72.495 115.509 72.5023 115.509 72.5097 115.509C80.4748 115.509 87.6486 110.778 90.7896 103.456L92.3625 99.7946L96.8796 101.734L95.3067 105.395C91.392 114.525 82.4436 120.424 72.5123 120.424Z" fill="black"/>
<path d="M74.9574 63.8983H65.1269C64.3699 63.8983 63.6548 63.5494 63.1878 62.9521C62.7233 62.3548 62.5585 61.5757 62.7429 60.8434L67.6582 41.2805L72.4236 42.4773L68.2775 58.9827H74.9574V63.8983Z" fill="black"/>
<path d="M69.4577 73.7288H65.1272V68.8135H69.4526C72.6672 68.8062 75.8966 68.0444 78.7818 66.6116L80.9668 71.0157C77.408 72.7801 73.429 73.7189 69.4577 73.7288Z" fill="black"/>
<path d="M77.9119 95.9458H67.1425C63.6084 95.941 60.2513 94.4171 57.924 91.7677L47.3047 79.6245C44.5302 76.4445 43.0235 72.372 43.0604 68.1548V34.4069C43.0604 33.0504 44.1614 31.9493 45.518 31.9493C45.6604 31.9493 59.954 31.9198 66.8599 29.6171L88.9786 22.2442C90.0919 21.878 91.3085 22.3399 91.8908 23.3575L101.721 40.5609C101.935 40.9319 102.046 41.3547 102.046 41.7849L101.992 68.2879C102.029 72.5003 100.52 76.5676 97.7449 79.7429L87.1205 91.7731C84.7983 94.4171 81.4386 95.9407 77.9119 95.9458ZM47.9731 36.8275V68.1744C47.9462 71.2094 49.0223 74.1194 51.0033 76.3901L61.6178 88.5259C63.0112 90.1135 65.0264 91.0277 67.1451 91.0303H77.9071C80.0181 91.0277 82.0359 90.1135 83.4344 88.5211L94.0536 76.4983C96.027 74.2372 97.1034 71.3275 97.074 68.3168C97.074 68.3069 97.074 68.2995 97.074 68.2899L97.1233 42.4284L88.615 27.5426L68.4107 34.2789C62.5371 36.2378 52.5836 36.7119 47.9731 36.8275Z" fill="black"/>
<path d="M38.2086 47.4445L33.7357 33.4605C31.9048 26.8026 34.5443 19.8574 40.0469 16.0973L35.7584 3.23645C35.5077 2.48682 35.6355 1.66354 36.0976 1.02209C36.5621 0.378085 37.3044 -0.000274658 38.0934 -0.000274658H79.0865C89.094 0.00963745 97.9832 6.18318 101.522 15.4632C107.764 18.6727 111.163 25.7163 109.76 32.6567L106.86 47.1763L102.041 46.2128L104.941 31.6882C105.919 26.8491 103.52 21.9437 99.1041 19.7489L98.4038 19.3853C97.8385 19.0904 97.4083 18.5889 97.2069 17.982C94.5969 10.1741 87.3149 4.92208 79.0845 4.91472H41.502L45.3408 16.4269C45.7291 17.5895 45.2006 18.8577 44.1046 19.4031C39.4499 21.7231 37.071 27.0439 38.4496 32.06L42.8931 45.9458L38.2086 47.4445Z" fill="black"/>
<path d="M60.212 58.983H52.8391C47.4175 58.983 43.0085 54.5741 43.0085 49.1524V41.7795C43.0085 40.423 44.1096 39.3219 45.4662 39.3219H67.5849C68.9415 39.3219 70.0425 40.423 70.0425 41.7795V49.1524C70.0425 54.5741 65.6336 58.983 60.212 58.983ZM47.9238 44.2372V49.1524C47.9238 51.8633 50.1283 54.0677 52.8391 54.0677H60.212C62.9228 54.0677 65.1273 51.8633 65.1273 49.1524V44.2372H47.9238Z" fill="black"/>
<path d="M92.161 58.983H84.7881C79.3664 58.983 74.9575 54.5741 74.9575 49.1524V41.7795C74.9575 40.423 76.0586 39.3219 77.4152 39.3219H99.5339C100.893 39.3219 101.992 40.423 101.992 41.7795V49.1524C101.992 54.5741 97.5823 58.983 92.161 58.983ZM79.8728 44.2372V49.1524C79.8728 51.8633 82.0772 54.0677 84.7881 54.0677H92.161C94.8718 54.0677 97.0762 51.8633 97.0762 49.1524V44.2372H79.8728Z" fill="black"/>
<path d="M77.4153 39.3219H67.5847V44.2372H77.4153V39.3219Z" fill="black"/>
</g>
<defs>
<clipPath id="clip0">
<rect width="145" height="145" fill="white"/>
</clipPath>
</defs>
</svg>
