<svg width="145" height="145" viewBox="0 0 145 145" fill="none" xmlns="http://www.w3.org/2000/svg">
<g clip-path="url(#clip0)">
<path d="M110.526 99.9056L93.7546 97.8031L92.6911 100.22C87.894 111.377 74.9603 116.534 63.8028 111.737C58.6313 109.514 54.5107 105.391 52.285 100.22L51.2216 97.8031L34.4503 99.9056C27.1471 100.812 21.683 107.047 21.7388 114.405V145H123.238V114.309C123.245 106.986 117.793 100.809 110.526 99.9056Z" fill="#DBDBDB"/>
<path d="M21.7385 115.807V145H31.405V101.501C24.1551 103.917 21.7385 108.75 21.7385 115.807Z" fill="#BFBFBF"/>
<path d="M123.237 116H21.7385V120.834H123.237V116Z" fill="#8C8C8C"/>
<path d="M123.237 128.083H21.7385V132.917H123.237V128.083Z" fill="#8C8C8C"/>
<path d="M123.237 140.167H21.7385V145H123.237V140.167Z" fill="#8C8C8C"/>
<path d="M120.82 103.917H24.1549V108.75H120.82V103.917Z" fill="#8C8C8C"/>
<path d="M72.4877 113.584C81.2794 113.588 89.2277 108.349 92.6909 100.268L93.7543 97.8512L88.9209 97.2472C86.4897 96.9402 84.6724 94.8643 84.6919 92.4138V79.7505H60.4047V92.3894C60.424 94.84 58.6067 96.9158 56.1757 97.2228L51.2217 97.8269L52.2851 100.243C55.7404 108.335 63.6912 113.584 72.4877 113.584Z" fill="#FEDAC6"/>
<path d="M84.5712 93.1388V79.7505H60.4049V93.1388C69.467 97.8512 75.5088 97.8512 84.5712 93.1388Z" fill="#F5C4B0"/>
<path d="M103.904 38.6679V33.8345C103.904 16.4831 89.8394 2.41829 72.488 2.41829C55.1366 2.41829 41.0718 16.4831 41.0718 33.8345V45.9178H103.904V38.6679H103.904Z" fill="#70432C"/>
<path d="M99.071 38.6678L98.612 57.4692C98.6819 67.6216 92.9086 76.9111 83.7737 81.3455L78.9404 83.762L83.5078 81.4661L78.9404 83.762C74.8634 85.7968 70.064 85.7968 65.9871 83.762L61.1537 81.3455C52.0188 76.9108 46.2455 67.6213 46.3155 57.4692L45.9045 41.0844L51.8979 27.092C52.6617 25.3158 54.4113 24.1654 56.3444 24.168H88.824C90.6583 24.168 92.3329 25.207 93.1499 26.8505L99.071 38.6678Z" fill="#FEDAC6"/>
<path d="M55.5716 60.4175C54.2763 48.3343 54.709 36.1303 56.8525 24.168H56.345C54.3706 24.1292 52.5725 25.2965 51.8017 27.1164L45.9052 41.0846L46.3642 57.4935C46.3135 67.6408 52.0795 76.9233 61.2025 81.3698L62.0725 81.8048L60.405 78.6633C57.2147 73.0565 56.5866 67.329 55.5716 60.4175Z" fill="#F5C4B0"/>
<path d="M105.113 24.168C111.119 24.168 115.988 19.2992 115.988 13.2932C115.988 7.28714 111.119 2.41829 105.113 2.41829C99.1066 2.41829 94.2378 7.28714 94.2378 13.2932C94.2378 19.2992 99.1066 24.168 105.113 24.168Z" fill="#5C3724"/>
<path d="M99.0708 4.83476C99.0708 4.66569 99.0708 4.49634 99.0708 4.32727C96.0499 6.30882 94.2326 9.68003 94.2374 13.2931C94.2085 19.2717 99.0345 24.1413 105.013 24.1705C107.732 24.1827 110.354 23.1725 112.362 21.3405C104.607 19.6393 99.0804 12.7734 99.0708 4.83476Z" fill="#4F2E20"/>
<path d="M48.6116 13.4622C43.742 19.1316 41.0668 26.3597 41.0717 33.8344V45.9177H53.7831C50.2017 35.4778 48.4521 24.499 48.6116 13.4622Z" fill="#5C3724"/>
<path d="M36.2383 45.9177C36.2383 49.9221 39.4837 53.1676 43.4882 53.1676H48.3216V38.6678H43.4882C39.4837 38.6678 36.2383 41.9132 36.2383 45.9177Z" fill="#F5C4B0"/>
<path d="M101.488 38.6678H96.6542V53.1676H101.488C105.492 53.1676 108.737 49.9221 108.737 45.9177C108.737 41.9132 105.492 38.6678 101.488 38.6678Z" fill="#FEDAC6"/>
<path d="M60.4047 53.1676H53.1548C49.1504 53.1676 45.9049 49.9221 45.9049 45.9177V41.0843C45.9049 39.7504 46.9876 38.6678 48.3215 38.6678H67.6547V45.9177C67.6547 49.9221 64.4092 53.1676 60.4047 53.1676Z" fill="#EBEBEB"/>
<path d="M91.8211 53.1676H84.5712C80.5668 53.1676 77.3213 49.9221 77.3213 45.9177V38.6678H96.6545C97.9884 38.6678 99.071 39.7504 99.071 41.0843V45.9177C99.071 49.9221 95.8256 53.1676 91.8211 53.1676Z" fill="#EBEBEB"/>
<path d="M74.9048 2.41829H70.0714V24.168H74.9048V2.41829Z" fill="#5C3724"/>
<path d="M60.4975 24.8328L65.1445 23.5052L60.3118 6.58983L55.6648 7.91748L60.4975 24.8328Z" fill="#5C3724"/>
<path d="M84.3718 25.1207L91.6255 8.20403L87.1831 6.2992L79.9294 23.2159L84.3718 25.1207Z" fill="#5C3724"/>
<path d="M68.3627 62.1261L63.5293 57.2927C62.5843 56.3477 62.5843 54.8204 63.5293 53.8756L68.3627 49.0423L71.7798 52.4594L68.655 55.5842L71.7798 58.709L68.3627 62.1261Z" fill="black"/>
<path d="M24.1551 145H19.322V114.308C19.2569 105.741 25.632 98.47 34.1529 97.4114L55.9027 94.7071C57.1133 94.5547 58.0221 93.5157 58.0148 92.2906V82.1673H62.8481V92.2713C62.877 95.9251 60.1487 99.0426 56.5045 99.502L34.7522 102.206C28.6648 102.963 24.1118 108.159 24.1577 114.29V145H24.1551V145Z" fill="black"/>
<path d="M125.678 145H120.845V114.429C120.893 108.277 116.34 103.083 110.253 102.327L88.5028 99.6203C84.8537 99.1613 82.1254 96.0438 82.1543 92.3704V82.1673H86.9877V92.3897C86.978 93.6343 87.8865 94.6709 89.1023 94.8258L110.847 97.5323C119.366 98.5909 125.743 105.86 125.678 114.449V145Z" fill="black"/>
<path d="M72.5001 116C72.4905 116 72.4809 116 72.4735 116C62.7079 116 53.9112 110.2 50.0639 101.22L48.5173 97.6218L52.959 95.715L54.5056 99.3159C57.5916 106.515 64.6459 111.167 72.4758 111.167C72.4831 111.167 72.4902 111.167 72.4976 111.167C80.3323 111.167 87.3865 106.517 90.47 99.3182L92.0165 95.715L96.4583 97.6218L94.9117 101.223C91.067 110.198 82.2682 116 72.5001 116Z" fill="black"/>
<path d="M69.4983 70.084C69.4958 70.084 69.4935 70.084 69.491 70.084H67.6544V65.2507H69.491C69.4935 65.2507 69.4958 65.2507 69.4983 65.2507C72.6617 65.2507 75.8276 64.5039 78.6573 63.0879L80.8201 67.4112C77.3234 69.1611 73.4085 70.084 69.4983 70.084Z" fill="black"/>
<path d="M91.9683 77.334H91.821V72.5009L91.9683 77.334Z" fill="black"/>
<path d="M43.488 41.0844H38.6547V33.8344C38.6547 15.1781 53.8311 0.00141144 72.4877 0.00141144C91.1443 0.00141144 106.321 15.1778 106.321 33.8344V38.6678H101.487V33.8344C101.487 17.8436 88.4786 4.83478 72.4877 4.83478C56.4968 4.83478 43.488 17.8436 43.488 33.8344V41.0844Z" fill="black"/>
<path d="M72.4639 87.6965C69.8684 87.6965 67.2754 87.1068 64.9096 85.925L60.0762 83.5085C50.3492 78.7839 44.0369 68.813 43.9015 58.001H43.4884C38.1571 58.001 33.8219 53.6655 33.8219 48.3345C33.8219 43.0036 38.1574 38.6681 43.4884 38.6681H45.9049C47.2147 38.6681 48.2877 39.7145 48.3214 41.0243L48.7324 57.4091C48.672 66.6553 53.9597 75.1666 62.2099 79.171L67.0698 81.5997C70.4459 83.289 74.4792 83.289 77.8578 81.6023L82.4252 79.3064C82.4952 79.2701 82.5677 79.2412 82.6379 79.2121L82.6934 79.1832C90.9679 75.1668 96.2581 66.653 96.1975 57.4841L96.6543 38.6077C96.688 37.2979 97.7588 36.249 99.0708 36.249H101.487C106.819 36.249 111.154 40.5845 111.154 45.9154C111.154 51.2464 106.818 55.5819 101.487 55.5819H101.076L101.028 57.5249C101.101 68.4697 94.7424 78.7043 84.827 83.5159L80.0203 85.9205C80.0177 85.9205 80.0155 85.9231 80.0155 85.9231C77.6499 87.1068 75.0569 87.6965 72.4639 87.6965ZM43.4884 43.5012C40.8229 43.5012 38.655 45.6688 38.655 48.3345C38.655 51 40.8226 53.1679 43.4884 53.1679H43.7928L43.4884 43.5012ZM101.195 50.7511H101.488C104.153 50.7511 106.321 48.5835 106.321 45.9177C106.321 43.2519 104.154 41.0843 101.488 41.0843H101.43L101.195 50.7511Z" fill="black"/>
<path d="M48.1259 42.0364L43.6842 40.1322L49.0491 27.6139C50.5764 24.047 54.0589 21.7511 57.9351 21.7511C57.9592 21.7511 57.9835 21.7511 58.0076 21.7511H87.3528C91.038 21.7559 94.3489 23.8052 95.9898 27.0991L101.234 37.5848L96.9105 39.7476L91.6665 29.2593C90.8449 27.6111 89.1919 26.5865 87.3502 26.5842H57.9881C57.9759 26.5842 57.964 26.5842 57.9518 26.5842C55.9969 26.5842 54.2569 27.732 53.4931 29.5156L48.1259 42.0364Z" fill="black"/>
<path d="M104.518 26.6041C104.279 26.6041 104.023 26.5967 103.762 26.5823L104.044 21.7563C104.354 21.7755 104.665 21.7755 104.97 21.7563C108.691 21.7537 111.898 19.487 113.092 16.1135C113.846 13.9821 113.725 11.6862 112.749 9.64664C111.775 7.6093 110.067 6.07238 107.937 5.3185C103.546 3.76458 98.6986 6.07719 97.1399 10.4733L92.5846 8.86133C95.0303 1.94984 102.645 -1.67994 109.547 0.76068C112.896 1.94474 115.581 4.35902 117.111 7.56342C118.641 10.7678 118.832 14.3758 117.647 17.7229C115.777 23.025 110.741 26.5848 105.117 26.5848C105.114 26.5848 105.112 26.5848 105.11 26.5848C104.943 26.5967 104.74 26.6041 104.518 26.6041Z" fill="black"/>
<path d="M60.4045 55.5842H53.1546C47.8234 55.5842 43.4882 51.2487 43.4882 45.9177V41.0844C43.4882 38.4189 45.6558 36.251 48.3215 36.251H67.6547C68.9886 36.251 70.0713 37.3337 70.0713 38.6675V45.9174C70.0713 51.249 65.7358 55.5842 60.4045 55.5842ZM48.3215 41.0844V45.9177C48.3215 48.5832 50.4891 50.7511 53.1549 50.7511H60.4048C63.0703 50.7511 65.2382 48.5835 65.2382 45.9177V41.0844H48.3215Z" fill="black"/>
<path d="M91.8209 55.5842H84.571C79.2398 55.5842 74.9045 51.2487 74.9045 45.9177V38.6678C74.9045 37.334 75.9872 36.2513 77.3211 36.2513H96.6543C99.3198 36.2513 101.488 38.4189 101.488 41.0847V45.918C101.487 51.249 97.1519 55.5842 91.8209 55.5842ZM79.7376 41.0844V45.9177C79.7376 48.5832 81.9052 50.7511 84.571 50.7511H91.8209C94.4864 50.7511 96.6543 48.5835 96.6543 45.9177V41.0844H79.7376Z" fill="black"/>
<path d="M77.3209 36.2513H67.6544V41.0847H77.3209V36.2513Z" fill="black"/>
<path d="M57.988 48.3345C60.6574 48.3345 62.8214 46.1705 62.8214 43.5011C62.8214 40.8317 60.6574 38.6678 57.988 38.6678C55.3186 38.6678 53.1547 40.8317 53.1547 43.5011C53.1547 46.1705 55.3186 48.3345 57.988 48.3345Z" fill="black"/>
<path d="M86.9878 48.3345C89.6572 48.3345 91.8212 46.1705 91.8212 43.5011C91.8212 40.8317 89.6572 38.6678 86.9878 38.6678C84.3184 38.6678 82.1544 40.8317 82.1544 43.5011C82.1544 46.1705 84.3184 48.3345 86.9878 48.3345Z" fill="black"/>
</g>
<defs>
<clipPath id="clip0">
<rect width="145" height="145" fill="white"/>
</clipPath>
</defs>
</svg>
