<svg width="145" height="145" viewBox="0 0 145 145" fill="none" xmlns="http://www.w3.org/2000/svg">
<path d="M24.1718 107.735C18.0696 105.033 15.3123 97.8968 18.0118 91.7947C19.0727 89.3948 20.8877 87.4059 23.1811 86.13C18.3502 81.5263 18.1642 73.8775 22.7679 69.0466C24.7883 66.9249 27.5141 65.6103 30.4311 65.3466C29.5127 63.8652 29.0199 62.1591 29.0052 60.4166C29.0052 55.0782 33.3334 50.75 38.6718 50.75V36.25C38.6718 17.5643 53.8194 2.4166 72.5052 2.4166C91.1909 2.4166 106.339 17.5643 106.339 36.25V50.75C111.677 50.75 116.005 55.0782 116.005 60.4166C115.981 62.1252 115.495 63.7927 114.604 65.25C121.25 65.8493 126.153 71.7218 125.554 78.37C125.29 81.2892 123.976 84.0128 121.854 86.0332C127.709 89.2328 129.862 96.5746 126.663 102.43C125.367 104.799 123.318 106.667 120.839 107.735H24.1718Z" fill="#70432C"/>
<path d="M49.6435 11.3584C42.6642 17.7554 38.6863 26.7839 38.6719 36.25V50.75C33.3335 50.75 29.0053 55.0781 29.0053 60.4165C29.0294 62.1251 29.5154 63.7926 30.4069 65.25C23.761 65.8492 18.8576 71.7217 19.4568 78.3699C19.7202 81.2892 21.0348 84.0127 23.1569 86.0331C17.3014 89.2327 15.1482 96.5745 18.3478 102.43C19.6432 104.799 21.6924 106.667 24.1719 107.735H87.0053C85.3863 106.527 83.7669 105.318 82.1719 103.917C50.0541 78.2275 48.4591 32.5284 49.6435 11.3584Z" fill="#5C3724"/>
<path d="M101.505 41.0834H96.6716V55.5834H101.505C105.51 55.5834 108.755 52.3379 108.755 48.3334C108.755 44.3289 105.51 41.0834 101.505 41.0834Z" fill="#FEDAC6"/>
<path d="M36.255 48.3334C36.255 52.3379 39.5005 55.5834 43.505 55.5834H48.3384V41.0834H43.505C39.5005 41.0834 36.255 44.3289 36.255 48.3334Z" fill="#F5C4B0"/>
<path d="M110.544 99.905L93.772 97.8025L92.7086 100.219C87.9114 111.377 74.9775 116.534 63.8199 111.737C58.6483 109.514 54.5277 105.391 52.302 100.219L51.2386 97.8025L34.467 99.905C27.1638 100.811 21.6996 107.046 21.7554 114.405V145H123.255V114.308C123.263 106.986 117.808 100.809 110.544 99.905Z" fill="#A15D30"/>
<path d="M72.5053 113.583C81.2971 113.588 89.2454 108.349 92.7087 100.268L93.7722 97.851L88.9387 97.2469C86.5074 96.9399 84.6901 94.864 84.7097 92.4135V79.75H60.4222V92.3891C60.4414 94.8397 58.6241 96.9155 56.1931 97.2225L51.239 97.8266L52.3024 100.243C55.7578 108.334 63.7062 113.583 72.5053 113.583Z" fill="#FEDAC6"/>
<path d="M84.5884 93.1385V79.75H60.4219V93.1385C69.4841 97.851 75.5259 97.851 84.5884 93.1385Z" fill="#F5C4B0"/>
<path d="M21.7552 115.807V145H31.4218V101.5C24.1718 103.917 21.7552 108.75 21.7552 115.807Z" fill="#8F4F24"/>
<path d="M99.0887 41.0835L97.7596 60.4169C97.1651 73.9333 86.0339 84.5835 72.5055 84.5835C58.9769 84.5835 47.8459 73.9333 47.2514 60.4169L45.9224 41.0835L72.5058 19.3335L99.0887 41.0835Z" fill="#FEDAC6"/>
<path d="M55.5886 33.1084L45.922 41.0834L47.2511 60.4169C47.6524 69.4746 52.8843 77.6212 60.9536 81.7559C59.7984 78.7279 58.8148 75.6371 58.0051 72.5C56.4101 66.12 55.8786 45.9166 55.5886 33.1084Z" fill="#F5C4B0"/>
<path d="M104.839 35.7264L107.825 31.9261L73.9947 5.34517L71.0088 9.14547L104.839 35.7264Z" fill="#5C3724"/>
<path d="M42.5642 33.3348L73.9762 9.16049L71.0283 5.33L39.6163 29.5043L42.5642 33.3348Z" fill="#5C3724"/>
<path d="M87.0004 50.75C89.6698 50.75 91.8338 48.586 91.8338 45.9165C91.8338 43.2471 89.6698 41.0831 87.0004 41.0831C84.331 41.0831 82.167 43.2471 82.167 45.9165C82.167 48.586 84.331 50.75 87.0004 50.75Z" fill="black"/>
<path d="M74.1557 60.2934L66.9057 57.8768C65.6395 57.454 64.9556 56.0861 65.3784 54.8196L70.2118 40.3196L74.7963 41.8495L70.7267 54.0561L75.6833 55.7092L74.1557 60.2934Z" fill="black"/>
<path d="M24.1717 145H19.3385V114.308C19.2734 105.744 25.6486 98.4697 34.1673 97.4111L55.9173 94.7045C57.1305 94.5522 58.0391 93.5131 58.0294 92.288V82.1668H62.8629V92.2684C62.8917 95.9271 60.1659 99.0446 56.5166 99.4992L34.7666 102.206C28.6791 102.962 24.1261 108.158 24.1742 114.289V145H24.1717Z" fill="black"/>
<path d="M125.696 145H120.862V114.429C120.911 108.279 116.355 103.085 110.27 102.326L88.5201 99.6221C84.871 99.163 82.1426 96.0455 82.1715 92.3721V82.1666H87.0049V92.3891C86.9953 93.6337 87.9038 94.6703 89.1196 94.8252L110.865 97.5295C119.386 98.5881 125.761 105.862 125.696 114.446V145Z" fill="black"/>
<path d="M101.505 58H99.0887V53.1666H101.505C104.171 53.1666 106.339 50.9989 106.339 48.3331C106.339 45.6676 104.171 43.4997 101.505 43.4997H99.0887V38.6663H101.505C106.837 38.6663 111.172 43.0018 111.172 48.3329C111.172 53.6639 106.837 58 101.505 58Z" fill="black"/>
<path d="M72.5172 116C72.5076 116 72.498 116 72.4906 116C62.7224 116 53.9281 110.2 50.0808 101.22L48.5342 97.6213L52.9759 95.7144L54.5225 99.3154C57.6086 106.515 64.6603 111.167 72.4929 111.167C72.5002 111.167 72.5073 111.167 72.5147 111.167C80.3472 111.167 87.4013 106.514 90.4873 99.3154L92.0339 95.7144L96.4757 97.6213L94.9291 101.222C91.0795 110.2 82.2829 116 72.5172 116Z" fill="black"/>
<path d="M72.5053 87C57.6454 87 45.4917 75.3686 44.8369 60.5231L43.5101 38.8142L48.3339 38.5193L49.663 60.2693C50.2042 72.5655 60.2384 82.1669 72.5053 82.1669C84.7723 82.1669 94.8064 72.5655 95.3454 60.3107L96.677 38.5196L101.501 38.8144L100.172 60.5644C99.5189 75.3712 87.3656 87 72.5053 87Z" fill="black"/>
<path d="M69.5132 70.0835C69.5106 70.0835 69.5084 70.0835 69.5058 70.0835H67.6715V65.25H69.5081C69.5106 65.25 69.5129 65.25 69.5154 65.25C72.6788 65.25 75.847 64.5032 78.6745 63.0872L80.8373 67.4106C77.3406 69.1602 73.4256 70.0835 69.5132 70.0835Z" fill="black"/>
<path d="M58.0004 50.75C60.6698 50.75 62.8338 48.586 62.8338 45.9165C62.8338 43.2471 60.6698 41.0831 58.0004 41.0831C55.331 41.0831 53.167 43.2471 53.167 45.9165C53.167 48.586 55.331 50.75 58.0004 50.75Z" fill="black"/>
<path d="M97.5585 42.9537L72.505 22.4554L47.4514 42.9537L44.3894 39.2126L70.9728 17.4626C71.8621 16.7328 73.143 16.7328 74.0348 17.4626L100.618 39.2126L97.5585 42.9537Z" fill="black"/>
<path d="M45.9218 58H43.5052C38.1739 58 33.8386 53.6645 33.8386 48.3335C33.8386 43.0025 38.1742 38.6669 43.5052 38.6669H45.9218V43.5H43.5052C40.8397 43.5 38.6718 45.6677 38.6718 48.3335C38.6718 50.999 40.8394 53.1669 43.5052 53.1669H45.9218V58Z" fill="black"/>
<path d="M108.755 43.5H103.922V36.25C103.922 18.9273 89.8277 4.83343 72.505 4.83343C55.1823 4.83343 41.0884 18.9273 41.0884 36.25V43.5H36.255V36.25C36.255 16.2618 52.5168 0 72.505 0C92.4932 0 108.755 16.2618 108.755 36.25V43.5Z" fill="black"/>
<path d="M74.9173 2.4166H70.0839V19.3332H74.9173V2.4166Z" fill="black"/>
<path d="M23.2174 109.956C20.2546 108.682 17.7751 106.42 16.226 103.588C14.3676 100.19 13.9471 96.273 15.0371 92.5559C15.8491 89.7865 17.4271 87.377 19.5854 85.5597C18.1594 83.5079 17.2775 81.1083 17.0504 78.5852C16.4342 71.7195 20.7287 65.5231 27.0288 63.486C26.7532 62.4999 26.606 61.48 26.589 60.4506C26.589 53.754 32.0095 48.3309 38.6724 48.3309V53.1643C34.6753 53.1643 31.4224 56.4172 31.4224 60.4143C31.4394 61.6517 31.8019 62.8986 32.4688 63.9861C32.9064 64.6989 32.9426 65.5885 32.568 66.3327C32.1933 67.0795 31.4587 67.5797 30.6249 67.6547C25.3154 68.1333 21.386 72.841 21.8646 78.1502C22.0747 80.4872 23.126 82.6622 24.8249 84.279C25.3831 84.8132 25.6561 85.5792 25.5547 86.3427C25.4533 87.1065 24.994 87.7806 24.3174 88.1504C22.0506 89.3877 20.4024 91.4322 19.6774 93.9116C18.9524 96.3911 19.2328 99.0011 20.4701 101.268C21.5021 103.155 23.1551 104.663 25.1293 105.512L23.2174 109.956Z" fill="black"/>
<path d="M121.793 109.956L119.881 105.514C121.853 104.666 123.509 103.158 124.543 101.27C127.098 96.5915 125.372 90.7094 120.693 88.1526C120.017 87.7828 119.555 87.1087 119.456 86.3449C119.355 85.5811 119.625 84.8128 120.186 84.2812C121.882 82.667 122.936 80.4894 123.146 78.1524C123.625 72.8455 119.695 68.1353 114.386 67.6569C113.552 67.5819 112.82 67.0817 112.443 66.3349C112.066 65.5881 112.104 64.7011 112.542 63.9883C113.207 62.9034 113.569 61.6561 113.588 60.3803C113.588 56.4194 110.336 53.1666 106.338 53.1666V48.3331C113.001 48.3331 118.422 53.7536 118.422 60.4166C118.405 61.4653 118.258 62.495 117.979 63.4882C124.28 65.5255 128.579 71.7217 127.96 78.5874C127.731 81.1128 126.849 83.5126 125.423 85.5644C130.573 89.9193 132.139 97.4496 128.784 103.59C127.233 106.423 124.751 108.685 121.793 109.956Z" fill="black"/>
</svg>
