<svg width="145" height="145" viewBox="0 0 145 145" fill="none" xmlns="http://www.w3.org/2000/svg">
<g clip-path="url(#clip0)">
<path d="M72.6087 2.4166C59.7521 2.4166 50.8587 4.83317 43.6087 19.3332C38.7753 28.9997 41.1921 60.4166 41.1921 60.4166V108.75H103.905V38.6666C103.3 17.3035 96.6547 2.4166 72.6087 2.4166Z" fill="#FECB66"/>
<path d="M69.2253 2.4166C58.4469 2.97253 50.5687 6.28317 44.0919 19.3332C39.2584 28.9997 41.6753 60.4166 41.6753 60.4166V108.75H69.7328C61.5162 64.2835 66.7603 19.575 69.2253 2.4166Z" fill="#F5AD76"/>
<path d="M72.4876 113.583C81.2794 113.588 89.2277 108.349 92.691 100.268L93.7545 97.851L88.921 97.2469C86.4897 96.9399 84.6724 94.864 84.692 92.4135V79.75H60.4045V92.3891C60.4237 94.8397 58.6064 96.9155 56.1754 97.2225L51.2213 97.8266L52.2847 100.243C55.7401 108.334 63.691 113.583 72.4876 113.583Z" fill="#FEDAC6"/>
<path d="M84.5712 90.7216V79.75H60.4047V90.7216C69.4672 95.4341 75.5087 95.4341 84.5712 90.7216Z" fill="#F5C4B0"/>
<path d="M41.0714 125.667V99.0832L34.4498 99.9047C27.1465 100.811 21.6824 107.046 21.7382 114.405V145H36.2382C36.2357 138.642 37.7171 132.368 40.5641 126.682L41.0714 125.667Z" fill="#FEDAC6"/>
<path d="M103.905 125.667V99.0831L93.7547 97.8022L92.6912 100.219C87.894 111.376 74.9602 116.534 63.8025 111.737C58.6309 109.513 54.5103 105.39 52.2847 100.219L51.2212 97.8022L41.0712 99.0831V125.667L40.5637 126.682C37.717 132.368 36.2355 138.642 36.2378 145H108.738C108.74 138.642 107.259 132.368 104.412 126.682L103.905 125.667Z" fill="#74A32E"/>
<path d="M110.526 99.905L103.905 99.0834V125.667L104.412 126.682C107.259 132.368 108.74 138.642 108.738 145H123.238V114.308C123.245 106.986 117.793 100.809 110.526 99.905Z" fill="#FEDAC6"/>
<path d="M21.7379 114.308V145H28.9879V101.814C24.5221 104.393 21.7623 109.151 21.7379 114.308Z" fill="#F5C4B0"/>
<path d="M99.0713 41.0834C92.9691 34.7637 88.0587 27.3953 84.5713 19.3334C74.1288 36.7696 59.0754 50.987 41.0713 60.4168C41.0713 60.4168 38.6547 29.0002 43.4879 19.3334C50.7379 4.83339 59.7519 2.41682 72.4879 2.41682C96.6544 2.41682 103.179 17.3034 103.904 38.6668V43.5" fill="#FECB66"/>
<path d="M41.0712 60.4166C62.3621 49.7591 77.3212 33.8331 84.5712 19.3331C65.8903 36.2497 55.5712 45.9166 40.5153 47.3906C40.6362 54.6891 41.0712 60.4166 41.0712 60.4166Z" fill="#F5AD76"/>
<path d="M99.0714 41.0835C92.9692 34.7638 88.0587 27.3954 84.5714 19.3335C75.3831 34.6576 62.6427 47.5456 47.4273 56.9125C46.9923 57.1785 47.1614 57.396 47.1614 57.396V60.441C47.7703 73.9744 58.9401 84.6222 72.4879 84.5835C86.0165 84.5835 97.1476 73.9333 97.742 60.4169L99.0714 41.0835Z" fill="#FEDAC6"/>
<path d="M45.9048 55.5834L46.0257 60.4169C46.4607 70.0834 54.6532 78.1794 62.9423 82.1669C58.1089 72.5003 53.2757 62.8334 55.6923 50.7503C53.1548 53.1666 45.9048 55.5834 45.9048 55.5834Z" fill="#F5C4B0"/>
<path d="M101.488 41.0834H96.6544V55.5834H101.488C105.492 55.5834 108.738 52.3379 108.738 48.3334C108.738 44.3289 105.492 41.0834 101.488 41.0834Z" fill="#FEDAC6"/>
<path d="M38.9446 130.5C37.1805 135.133 36.2647 140.043 36.238 145H52.309C42.8596 141.037 39.8628 134.705 38.9446 130.5Z" fill="#688E26"/>
<path d="M86.988 50.75C89.6574 50.75 91.8214 48.586 91.8214 45.9166C91.8214 43.2472 89.6574 41.0832 86.988 41.0832C84.3185 41.0832 82.1545 43.2472 82.1545 45.9166C82.1545 48.586 84.3185 50.75 86.988 50.75Z" fill="black"/>
<path d="M71.7243 62.71L64.4742 60.2934C63.7371 60.047 63.1644 59.4622 62.9325 58.7225C62.7005 57.9805 62.8407 57.1733 63.3072 56.5523L70.5572 46.8857L74.4238 49.7857L69.1868 56.7698L73.2564 58.1255L71.7243 62.71Z" fill="black"/>
<path d="M24.1547 145H19.3213V114.308C19.2562 105.741 25.6313 98.4697 34.1524 97.4111L55.9024 94.7045C57.1131 94.5522 58.0219 93.5131 58.0145 92.288V82.1668H62.8479V92.2684C62.8768 95.9271 60.1484 99.0446 56.5042 99.4992L34.7516 102.206C28.6642 102.962 24.1111 108.158 24.157 114.289V145H24.1547Z" fill="black"/>
<path d="M125.679 145H120.845V114.429C120.894 108.279 116.338 103.085 110.253 102.326L88.5028 99.6221C84.8538 99.163 82.1254 96.0455 82.1543 92.3721V82.1666H86.9877V92.3891C86.9781 93.6337 87.8866 94.6703 89.1024 94.8252L110.848 97.5295C119.369 98.5881 125.744 105.862 125.679 114.446V145Z" fill="black"/>
<path d="M101.488 58H99.071V53.1666H101.488C104.153 53.1666 106.321 50.9989 106.321 48.3331C106.321 45.6676 104.153 43.4997 101.488 43.4997H99.071V38.6663H101.488C106.819 38.6663 111.154 43.0018 111.154 48.3329C111.154 53.6639 106.819 58 101.488 58Z" fill="black"/>
<path d="M72.5 116C72.4904 116 72.4808 116 72.4734 116C62.7077 116 53.9109 110.2 50.0635 101.22L48.517 97.6213L52.9587 95.7144L54.5053 99.3154C57.5914 106.515 64.6457 111.167 72.4757 111.167C72.483 111.167 72.4901 111.167 72.4975 111.167C80.3323 111.167 87.3866 106.517 90.4727 99.3176L92.0192 95.7144L96.461 97.6213L94.9144 101.222C91.0674 110.2 82.2683 116 72.5 116Z" fill="black"/>
<path d="M72.4876 87C57.6277 87 45.474 75.3686 44.8192 60.5231L44.696 55.6437L49.5269 55.5228L49.6479 60.3562C50.1891 72.5651 60.2207 82.1666 72.4879 82.1666C84.7551 82.1666 94.789 72.5651 95.3279 60.3104L96.6596 38.5193L101.483 38.8141L100.154 60.5641C99.5035 75.3711 87.3501 87 72.4876 87Z" fill="black"/>
<path d="M69.4985 70.0834C69.4959 70.0834 69.4937 70.0834 69.4911 70.0834H67.6545V65.25H69.4911C69.4937 65.25 69.4959 65.25 69.4985 65.25C72.6618 65.25 75.8278 64.5032 78.6575 63.0872L80.8204 67.4106C77.3237 69.1602 73.4087 70.0834 69.4985 70.0834Z" fill="black"/>
<path d="M41.0713 62.8334C40.6677 62.8334 40.2641 62.732 39.9016 62.5312C39.1911 62.1373 38.7247 61.4123 38.6618 60.6026C38.5604 59.2928 36.2523 28.403 41.3273 18.253C48.9593 2.98694 58.5316 0 72.4878 0C101.316 0 105.71 20.6214 106.319 38.5844L106.321 43.5H101.488V38.6666C100.671 14.6594 92.2707 4.83314 72.4878 4.83314C59.8536 4.83314 52.2363 7.24264 45.6507 20.4133C42.3834 26.9456 42.6756 46.112 43.2389 56.4795C59.399 47.289 72.9203 34.0795 82.5002 18.0907C82.9618 17.3125 83.8148 16.8582 84.7307 16.9211C85.637 16.9814 86.4319 17.5422 86.7922 18.3737C90.173 26.194 94.8903 33.2699 100.814 39.406L97.3361 42.7628C92.0558 37.2939 87.6743 31.1266 84.2691 24.3793C73.7422 40.4694 59.2759 53.616 42.1973 62.5601C41.8399 62.7414 41.4556 62.8334 41.0713 62.8334Z" fill="black"/>
<path d="M106.321 55.5835H101.488V99.0835H106.321V55.5835Z" fill="black"/>
<path d="M43.488 58H38.6545V99.0834H43.488V58Z" fill="black"/>
<path d="M33.8214 145C33.8214 138.301 35.4042 131.592 38.4034 125.601L38.6546 125.096V99.0834H43.488V125.667C43.488 126.042 43.401 126.414 43.2342 126.747L42.7267 127.762C40.0612 133.086 38.6546 139.048 38.6546 145H33.8214Z" fill="black"/>
<path d="M111.155 145H106.321C106.324 139.048 104.917 133.088 102.249 127.762L101.742 126.747C101.575 126.411 101.488 126.041 101.488 125.667V99.0834H106.321V125.096L106.573 125.601C109.574 131.595 111.157 138.303 111.155 145Z" fill="black"/>
</g>
<defs>
<clipPath id="clip0">
<rect width="145" height="145" fill="white"/>
</clipPath>
</defs>
</svg>
