<svg width="1465" height="1096" viewBox="0 0 1465 1096" fill="none"  xmlns="http://www.w3.org/2000/svg">
<ellipse cx="825" cy="930" rx="210" ry="227" fill="#D0E3FF"/>
<ellipse cx="54" cy="930" rx="33" ry="36" fill="#D0E3FF"/>
<ellipse rx="33" ry="36" transform="matrix(-1 0 0 1 1301 628)" fill="#D0E3FF"/>
<ellipse rx="33" ry="36" transform="matrix(-1 0 0 1 740 219)" fill="#D0E3FF"/>
<ellipse cx="21" cy="781" rx="20" ry="22" fill="#D0E3FF"/>
<ellipse rx="20" ry="22" transform="matrix(-1 0 0 1 1334 479)" fill="#D0E3FF"/>
<ellipse rx="20" ry="22" transform="matrix(-1 0 0 1 773 70)" fill="#D0E3FF"/>
<ellipse cx="123" cy="813" rx="62" ry="68" fill="#D0E3FF"/>
<ellipse rx="62" ry="68" transform="matrix(-1 0 0 1 12319 511)" fill="#D0E3FF"/>
<ellipse rx="62" ry="68" transform="matrix(-1 0 0 1 67126 102)" fill="#D0E3FF"/>
<ellipse cx="1368" cy="71" rx="210" ry="227" fill="#D0E3FF"/>
</svg>
